<?xml version="1.0" encoding="UTF-8"?>
<!DOCTYPE svg PUBLIC "-//W3C//DTD SVG 1.1//EN" "http://www.w3.org/Graphics/SVG/1.1/DTD/svg11.dtd">
<svg xmlns="http://www.w3.org/2000/svg" version="1.1" width="1024px" height="1024px" style="shape-rendering:geometricPrecision; text-rendering:geometricPrecision; image-rendering:optimizeQuality; fill-rule:evenodd; clip-rule:evenodd" xmlns:xlink="http://www.w3.org/1999/xlink">
<g><path style="opacity:0.485" fill="#07080b" d="M 295.5,130.5 C 446.508,130.039 597.508,130.539 748.5,132C 797.382,136.981 836.549,158.814 866,197.5C 883.122,223.868 892.455,252.868 894,284.5C 894.667,433.5 894.667,582.5 894,731.5C 892.987,759.187 886.654,785.52 875,810.5C 847.142,858.62 805.308,885.453 749.5,891C 670.176,892.129 590.842,892.629 511.5,892.5C 431.825,892.628 352.158,892.128 272.5,891C 183.355,876.85 135.521,824.683 129,734.5C 128.333,585.5 128.333,436.5 129,287.5C 130.495,236.924 150.662,195.757 189.5,164C 221.347,142.034 256.68,130.867 295.5,130.5 Z"/></g>
<g><path style="opacity:1" fill="#1d2027" d="M 298.5,132.5 C 446.843,132.031 595.177,132.531 743.5,134C 792.723,138.022 832.556,159.188 863,197.5C 881.915,226.252 891.582,257.919 892,292.5C 892.97,441.51 892.637,590.51 891,739.5C 882.073,829.094 832.906,878.927 743.5,889C 588.5,889.667 433.5,889.667 278.5,889C 229.368,885.192 189.868,864.026 160,825.5C 140.077,793.82 130.41,759.154 131,721.5C 130.333,579.5 130.333,437.5 131,295.5C 130.784,245.456 148.95,203.622 185.5,170C 218.996,145.001 256.662,132.501 298.5,132.5 Z"/></g>
<g><path style="opacity:1" fill="#15181d" d="M 307.5,776.5 C 313.14,779.819 319.14,782.319 325.5,784C 448.833,784.5 572.166,784.667 695.5,784.5C 696.239,784.369 696.906,784.536 697.5,785C 695.833,785.333 694.167,785.667 692.5,786C 571.833,786.667 451.167,786.667 330.5,786C 322.214,785.127 314.547,782.46 307.5,778C 306.262,777.31 306.262,776.81 307.5,776.5 Z"/></g>
<g><path style="opacity:1" fill="#7b7e8c" d="M 695.5,784.5 C 572.166,784.667 448.833,784.5 325.5,784C 319.14,782.319 313.14,779.819 307.5,776.5C 296.898,768.718 290.064,758.385 287,745.5C 286.333,594.5 286.333,443.5 287,292.5C 292.675,272.826 305.509,260.659 325.5,256C 449.833,255.333 574.167,255.333 698.5,256C 717.936,261.103 730.436,273.27 736,292.5C 736.667,442.833 736.667,593.167 736,743.5C 730.986,765.68 717.486,779.347 695.5,784.5 Z"/></g>
<g><path style="opacity:1" fill="#181a1f" d="M 692.5,735.5 C 691.989,741.188 688.989,745.021 683.5,747C 636.5,747.667 589.5,747.667 542.5,747C 540.807,746.153 539.14,745.32 537.5,744.5C 538.721,743.535 540.054,743.702 541.5,745C 589.167,745.667 636.833,745.667 684.5,745C 688.505,742.839 691.171,739.672 692.5,735.5 Z"/></g>
<g><path style="opacity:1" fill="#191b20" d="M 488.5,741.5 C 486.737,744.556 484.07,746.389 480.5,747C 432.998,747.832 385.665,747.665 338.5,746.5C 386.332,745.667 434.332,745.167 482.5,745C 484.624,743.878 486.457,742.378 488,740.5C 488.399,740.728 488.565,741.062 488.5,741.5 Z"/></g>
<g><path style="opacity:1" fill="#14161c" d="M 487.5,619.5 C 488.907,621.308 490.074,623.308 491,625.5C 491.815,663.196 491.648,700.863 490.5,738.5C 489.667,700.669 489.167,662.669 489,624.5C 488.365,623.034 487.531,621.7 486.5,620.5C 486.624,619.893 486.957,619.56 487.5,619.5 Z"/></g>
<g><path style="opacity:1" fill="#14161c" d="M 534.5,620.5 C 535.465,621.721 535.298,623.054 534,624.5C 533.833,662.336 533.333,700.002 532.5,737.5C 531.352,700.529 531.186,663.529 532,626.5C 532.573,624.359 533.406,622.359 534.5,620.5 Z"/></g>
<g><path style="opacity:1" fill="#1d2027" d="M 691.5,622.5 C 692.268,623.263 692.768,624.263 693,625.5C 693.831,662.336 693.664,699.002 692.5,735.5C 691.171,739.672 688.505,742.839 684.5,745C 636.833,745.667 589.167,745.667 541.5,745C 540.054,743.702 538.721,743.535 537.5,744.5C 535.11,742.733 533.443,740.4 532.5,737.5C 533.333,700.002 533.833,662.336 534,624.5C 535.298,623.054 535.465,621.721 534.5,620.5C 534.973,619.094 535.973,618.427 537.5,618.5C 538.922,618.291 540.255,617.791 541.5,617C 588.833,616.333 636.167,616.333 683.5,617C 686.937,618.105 689.437,620.272 691,623.5C 691.399,623.272 691.565,622.938 691.5,622.5 Z"/></g>
<g><path style="opacity:1" fill="#7f8291" d="M 573.5,702.5 C 598.961,703.149 624.294,703.815 649.5,704.5C 625.239,705.656 600.906,705.823 576.5,705C 575.058,704.623 574.058,703.79 573.5,702.5 Z"/></g>
<g><path style="opacity:1" fill="#7c808d" d="M 574.5,689.5 C 575.5,689.5 576.5,689.5 577.5,689.5C 601.836,689.333 626.169,689.5 650.5,690C 654.753,693.42 655.587,697.587 653,702.5C 651.887,703.305 650.721,703.972 649.5,704.5C 624.294,703.815 598.961,703.149 573.5,702.5C 571.124,701.488 570.124,699.655 570.5,697C 570.667,695.833 570.833,694.667 571,693.5C 572.376,692.295 573.542,690.962 574.5,689.5 Z"/></g>
<g><path style="opacity:1" fill="#090b10" d="M 577.5,689.5 C 576.5,689.5 575.5,689.5 574.5,689.5C 574.918,688.778 575.584,688.278 576.5,688C 600.5,687.333 624.5,687.333 648.5,688C 624.663,688.168 600.996,688.668 577.5,689.5 Z"/></g>
<g><path style="opacity:1" fill="#7d808e" d="M 576.5,657.5 C 600.502,657.333 624.502,657.5 648.5,658C 653.924,660.017 655.758,663.85 654,669.5C 652.833,670.667 651.667,671.833 650.5,673C 625.167,673.667 599.833,673.667 574.5,673C 568.759,667.02 569.426,661.853 576.5,657.5 Z"/></g>
<g><path style="opacity:1" fill="#1d2027" d="M 337.5,615.5 C 338.167,615.5 338.833,615.5 339.5,615.5C 386.332,616.333 433.332,616.833 480.5,617C 482.154,617.608 483.821,618.108 485.5,618.5C 486.492,618.328 487.158,618.662 487.5,619.5C 486.957,619.56 486.624,619.893 486.5,620.5C 487.531,621.7 488.365,623.034 489,624.5C 489.167,662.669 489.667,700.669 490.5,738.5C 490.068,739.71 489.401,740.71 488.5,741.5C 488.565,741.062 488.399,740.728 488,740.5C 486.457,742.378 484.624,743.878 482.5,745C 434.332,745.167 386.332,745.667 338.5,746.5C 333.58,745.021 330.747,741.687 330,736.5C 329.333,699.5 329.333,662.5 330,625.5C 331.306,621.199 333.806,617.866 337.5,615.5 Z"/></g>
<g><path style="opacity:1" fill="#0f1117" d="M 377.5,649.5 C 376.099,652.877 376.265,656.21 378,659.5C 384.667,666.167 391.333,672.833 398,679.5C 398.585,680.998 398.085,681.998 396.5,682.5C 396.649,681.448 396.483,680.448 396,679.5C 389.667,673.167 383.333,666.833 377,660.5C 374.214,657.033 373.88,653.366 376,649.5C 376.69,648.262 377.19,648.262 377.5,649.5 Z"/></g>
<g><path style="opacity:1" fill="#7d808e" d="M 396.5,682.5 C 398.085,681.998 398.585,680.998 398,679.5C 391.333,672.833 384.667,666.167 378,659.5C 376.265,656.21 376.099,652.877 377.5,649.5C 380.246,646.695 383.579,645.861 387.5,647C 395,654.5 402.5,662 410,669.5C 417.167,662.333 424.333,655.167 431.5,648C 436.413,645.413 440.58,646.247 444,650.5C 444.755,653.303 444.422,655.97 443,658.5C 435.652,665.681 428.485,673.014 421.5,680.5C 428.819,688.319 436.319,695.986 444,703.5C 444.761,713.068 440.594,716.235 431.5,713C 424.624,705.789 417.457,698.956 410,692.5C 402.13,699.372 394.63,706.539 387.5,714C 377.507,715.206 374.34,711.039 378,701.5C 384.369,695.298 390.536,688.965 396.5,682.5 Z"/></g>
<g><path style="opacity:1" fill="#17191e" d="M 681.5,614.5 C 685.971,615.737 689.304,618.403 691.5,622.5C 691.565,622.938 691.399,623.272 691,623.5C 689.437,620.272 686.937,618.105 683.5,617C 636.167,616.333 588.833,616.333 541.5,617C 540.255,617.791 538.922,618.291 537.5,618.5C 538.306,617.272 539.306,616.272 540.5,615.5C 587.458,614.51 634.458,614.177 681.5,614.5 Z"/></g>
<g><path style="opacity:1" fill="#18191e" d="M 479.5,614.5 C 481.81,615.325 483.81,616.658 485.5,618.5C 483.821,618.108 482.154,617.608 480.5,617C 433.332,616.833 386.332,616.333 339.5,615.5C 386.095,614.505 432.761,614.172 479.5,614.5 Z"/></g>
<g><path style="opacity:1" fill="#9598a8" d="M 681.5,614.5 C 634.458,614.177 587.458,614.51 540.5,615.5C 540.062,615.565 539.728,615.399 539.5,615C 540.167,614.667 540.833,614.333 541.5,614C 588.904,613.17 635.571,613.336 681.5,614.5 Z"/></g>
<g><path style="opacity:1" fill="#9699a9" d="M 479.5,614.5 C 432.761,614.172 386.095,614.505 339.5,615.5C 338.833,615.5 338.167,615.5 337.5,615.5C 337.918,614.778 338.584,614.278 339.5,614C 363,613.833 386.5,613.667 410,613.5C 433.905,613.495 457.072,613.828 479.5,614.5 Z"/></g>
<g><path style="opacity:1" fill="#9498a7" d="M 540.5,577.5 C 541.167,577.5 541.833,577.5 542.5,577.5C 542.833,577.5 543.167,577.5 543.5,577.5C 589.332,578.333 635.332,578.833 681.5,579C 635.167,579.667 588.833,579.667 542.5,579C 541.584,578.722 540.918,578.222 540.5,577.5 Z"/></g>
<g><path style="opacity:1" fill="#03040a" d="M 686.5,576.5 C 638.876,577.49 591.209,577.824 543.5,577.5C 543.167,577.5 542.833,577.5 542.5,577.5C 589.86,576.826 637.36,576.16 685,575.5C 685.765,575.57 686.265,575.903 686.5,576.5 Z"/></g>
<g><path style="opacity:1" fill="#010207" d="M 484.5,576.5 C 436.542,577.49 388.542,577.824 340.5,577.5C 387.86,576.826 435.36,576.16 483,575.5C 483.765,575.57 484.265,575.903 484.5,576.5 Z"/></g>
<g><path style="opacity:1" fill="#06080d" d="M 687.5,446.5 C 687.833,446.5 688.167,446.5 688.5,446.5C 691.231,448.071 693.065,450.405 694,453.5C 694.5,490.498 694.667,527.498 694.5,564.5C 693.667,528.336 693.167,492.002 693,455.5C 692.163,451.843 690.33,448.843 687.5,446.5 Z"/></g>
<g><path style="opacity:1" fill="#8f92a1" d="M 531.5,454.5 C 531.185,492.864 531.518,531.197 532.5,569.5C 532.565,569.938 532.399,570.272 532,570.5C 531.667,569.833 531.333,569.167 531,568.5C 530.833,549.333 530.667,530.167 530.5,511C 530.494,491.428 530.827,472.594 531.5,454.5 Z"/></g>
<g><path style="opacity:1" fill="#8e91a0" d="M 330.5,451.5 C 329.512,490.124 329.179,528.79 329.5,567.5C 328.827,549.239 328.494,530.239 328.5,510.5C 328.667,491.167 328.833,471.833 329,452.5C 329.333,451.833 329.667,451.167 330,450.5C 330.399,450.728 330.565,451.062 330.5,451.5 Z"/></g>
<g><path style="opacity:1" fill="#9093a3" d="M 688.5,446.5 C 688.897,445.475 689.563,445.308 690.5,446C 692.617,447.731 694.117,449.898 695,452.5C 695.827,491.875 695.661,529.875 694.5,566.5C 694.5,565.833 694.5,565.167 694.5,564.5C 694.667,527.498 694.5,490.498 694,453.5C 693.065,450.405 691.231,448.071 688.5,446.5 Z"/></g>
<g><path style="opacity:1" fill="#080a0f" d="M 490.5,451.5 C 491.654,489.792 491.821,528.125 491,566.5C 490.648,568.247 490.148,569.914 489.5,571.5C 488.957,571.44 488.624,571.107 488.5,570.5C 489.154,568.885 489.654,567.218 490,565.5C 490.471,527.293 490.638,489.293 490.5,451.5 Z"/></g>
<g><path style="opacity:1" fill="#1d1f26" d="M 684.5,444.5 C 685.71,444.932 686.71,445.599 687.5,446.5C 690.33,448.843 692.163,451.843 693,455.5C 693.167,492.002 693.667,528.336 694.5,564.5C 694.5,565.167 694.5,565.833 694.5,566.5C 693.002,570.675 690.335,574.009 686.5,576.5C 686.265,575.903 685.765,575.57 685,575.5C 637.36,576.16 589.86,576.826 542.5,577.5C 541.833,577.5 541.167,577.5 540.5,577.5C 537.5,575.167 534.833,572.5 532.5,569.5C 531.518,531.197 531.185,492.864 531.5,454.5C 532.375,452.432 533.541,450.432 535,448.5C 535.671,447.748 536.504,447.414 537.5,447.5C 539.179,447.108 540.846,446.608 542.5,446C 590.002,445.833 637.335,445.333 684.5,444.5 Z"/></g>
<g><path style="opacity:1" fill="#7e8290" d="M 651.5,518.5 C 650.527,518.987 649.527,519.487 648.5,520C 624.33,520.83 600.33,520.663 576.5,519.5C 601.039,518.824 625.706,518.158 650.5,517.5C 651.107,517.624 651.44,517.957 651.5,518.5 Z"/></g>
<g><path style="opacity:1" fill="#7a7e8b" d="M 576.5,504.5 C 600.833,505.833 625.167,505.833 649.5,504.5C 654.109,506.725 655.609,510.391 654,515.5C 653.623,516.942 652.79,517.942 651.5,518.5C 651.44,517.957 651.107,517.624 650.5,517.5C 625.706,518.158 601.039,518.824 576.5,519.5C 570.973,517.779 569.14,514.112 571,508.5C 572.451,506.536 574.284,505.203 576.5,504.5 Z"/></g>
<g><path style="opacity:1" fill="#7e818f" d="M 649.5,504.5 C 625.167,505.833 600.833,505.833 576.5,504.5C 600.736,503.173 625.069,503.173 649.5,504.5 Z"/></g>
<g><path style="opacity:1" fill="#1d2027" d="M 483.5,444.5 C 483.833,444.5 484.167,444.5 484.5,444.5C 487.19,446.193 489.19,448.527 490.5,451.5C 490.638,489.293 490.471,527.293 490,565.5C 489.654,567.218 489.154,568.885 488.5,570.5C 488.624,571.107 488.957,571.44 489.5,571.5C 488.167,573.5 486.5,575.167 484.5,576.5C 484.265,575.903 483.765,575.57 483,575.5C 435.36,576.16 387.86,576.826 340.5,577.5C 334.876,576.205 331.209,572.871 329.5,567.5C 329.179,528.79 329.512,490.124 330.5,451.5C 331.167,451.167 331.833,450.833 332.5,450.5C 334.465,448.512 336.798,447.012 339.5,446C 387.668,445.833 435.668,445.333 483.5,444.5 Z"/></g>
<g><path style="opacity:1" fill="#020408" d="M 451.5,514.5 C 451.882,517.038 450.549,518.871 447.5,520C 438.173,520.5 428.839,520.666 419.5,520.5C 419.827,530.348 419.494,540.014 418.5,549.5C 418.5,539.5 418.5,529.5 418.5,519.5C 427.839,519.666 437.173,519.5 446.5,519C 448.66,518.004 450.327,516.504 451.5,514.5 Z"/></g>
<g><path style="opacity:1" fill="#090b10" d="M 373.5,519.5 C 383.167,519.5 392.833,519.5 402.5,519.5C 402.5,529.167 402.5,538.833 402.5,548.5C 402.5,549.167 402.5,549.833 402.5,550.5C 401.506,540.681 401.173,530.681 401.5,520.5C 391.985,520.827 382.652,520.494 373.5,519.5 Z"/></g>
<g><path style="opacity:1" fill="#888c9b" d="M 372.5,503.5 C 373.167,503.5 373.833,503.5 374.5,503.5C 383.839,503.334 393.173,503.5 402.5,504C 392.833,504.333 383.167,504.667 373.5,505C 368.679,508.601 368.346,512.601 372.5,517C 382.744,517.179 392.91,517.679 403,518.5C 403.825,528.675 403.658,538.675 402.5,548.5C 402.5,538.833 402.5,529.167 402.5,519.5C 392.833,519.5 383.167,519.5 373.5,519.5C 368.809,516.869 367.309,512.869 369,507.5C 369.69,505.65 370.856,504.316 372.5,503.5 Z"/></g>
<g><path style="opacity:1" fill="#07090d" d="M 402.5,477.5 C 402.5,485.833 402.5,494.167 402.5,502.5C 392.985,502.173 383.652,502.506 374.5,503.5C 373.833,503.5 373.167,503.5 372.5,503.5C 372.062,503.565 371.728,503.399 371.5,503C 372.167,502.667 372.833,502.333 373.5,502C 382.827,501.5 392.161,501.334 401.5,501.5C 401.174,493.316 401.508,485.316 402.5,477.5 Z"/></g>
<g><path style="opacity:1" fill="#05070b" d="M 417.5,471.5 C 418.117,471.611 418.617,471.944 419,472.5C 419.5,482.161 419.666,491.828 419.5,501.5C 429.58,501.077 439.58,501.577 449.5,503C 453.22,505.904 454.22,509.404 452.5,513.5C 453.026,508.043 450.693,504.543 445.5,503C 436.506,502.5 427.506,502.334 418.5,502.5C 418.786,492.115 418.452,481.782 417.5,471.5 Z"/></g>
<g><path style="opacity:1" fill="#7a7e8b" d="M 417.5,471.5 C 418.452,481.782 418.786,492.115 418.5,502.5C 427.506,502.334 436.506,502.5 445.5,503C 450.693,504.543 453.026,508.043 452.5,513.5C 451.833,513.5 451.5,513.833 451.5,514.5C 450.327,516.504 448.66,518.004 446.5,519C 437.173,519.5 427.839,519.666 418.5,519.5C 418.5,529.5 418.5,539.5 418.5,549.5C 413.645,555.77 408.311,556.103 402.5,550.5C 402.5,549.833 402.5,549.167 402.5,548.5C 403.658,538.675 403.825,528.675 403,518.5C 392.91,517.679 382.744,517.179 372.5,517C 368.346,512.601 368.679,508.601 373.5,505C 383.167,504.667 392.833,504.333 402.5,504C 393.173,503.5 383.839,503.334 374.5,503.5C 383.652,502.506 392.985,502.173 402.5,502.5C 402.5,494.167 402.5,485.833 402.5,477.5C 402.802,470.368 406.469,467.535 413.5,469C 414.984,469.662 416.317,470.496 417.5,471.5 Z"/></g>
<g><path style="opacity:1" fill="#02050a" d="M 684.5,444.5 C 637.335,445.333 590.002,445.833 542.5,446C 540.846,446.608 539.179,447.108 537.5,447.5C 538.058,446.21 539.058,445.377 540.5,445C 588.499,444.5 636.499,444.333 684.5,444.5 Z"/></g>
<g><path style="opacity:1" fill="#020509" d="M 482.5,444.5 C 482.833,444.5 483.167,444.5 483.5,444.5C 435.668,445.333 387.668,445.833 339.5,446C 336.798,447.012 334.465,448.512 332.5,450.5C 333.359,447.548 335.359,445.715 338.5,445C 386.499,444.5 434.499,444.333 482.5,444.5 Z"/></g>
<g><path style="opacity:1" fill="#9296a6" d="M 484.5,444.5 C 484.167,444.5 483.833,444.5 483.5,444.5C 483.167,444.5 482.833,444.5 482.5,444.5C 435.335,443.667 388.002,443.167 340.5,443C 388.167,442.333 435.833,442.333 483.5,443C 484.056,443.383 484.389,443.883 484.5,444.5 Z"/></g>
<g><path style="opacity:1" fill="#1c1f26" d="M 334.5,299.5 C 452.167,299.333 569.834,299.5 687.5,300C 689.939,300.774 691.773,302.274 693,304.5C 693.667,335.167 693.667,365.833 693,396.5C 692.065,399.102 690.232,400.602 687.5,401C 569.833,401.667 452.167,401.667 334.5,401C 332.667,399.833 331.167,398.333 330,396.5C 329.333,365.833 329.333,335.167 330,304.5C 331.366,302.638 332.866,300.972 334.5,299.5 Z"/></g>
</svg>
